<?xml version="1.0" encoding="UTF-8"?>
<svg xmlns="http://www.w3.org/2000/svg" xmlns:xlink="http://www.w3.org/1999/xlink" width="24pt" height="24pt" viewBox="0 0 24 24" version="1.1">

<path style=" stroke:none;fill-rule:nonzero;fill:rgb(39.607843%,42.745098%,47.058824%);fill-opacity:1;" d="M 5.8125 0.375 L 5.8125 19.875 L 5.0625 19.875 C 4.027344 19.875 3.1875 20.714844 3.1875 21.75 L 3.1875 2.25 C 3.1875 1.214844 4.027344 0.375 5.0625 0.375 Z M 5.8125 0.375 "/>
<path style=" stroke:none;fill-rule:nonzero;fill:rgb(85.490196%,26.666667%,32.54902%);fill-opacity:1;" d="M 20.8125 19.875 L 20.8125 23.625 L 19.3125 23.625 L 19.3125 19.875 Z M 20.8125 19.875 "/>
<path style=" stroke:none;fill-rule:nonzero;fill:rgb(90.196078%,91.372549%,92.941176%);fill-opacity:1;" d="M 19.3125 21.75 L 19.3125 23.625 L 5.0625 23.625 C 4.027344 23.625 3.1875 22.785156 3.1875 21.75 C 3.1875 20.714844 4.027344 19.875 5.0625 19.875 L 19.3125 19.875 Z M 19.3125 21.75 "/>
<path style=" stroke:none;fill-rule:nonzero;fill:rgb(92.941176%,33.333333%,39.607843%);fill-opacity:1;" d="M 5.8125 0.375 L 5.8125 19.875 L 20.8125 19.875 L 20.8125 0.375 Z M 5.8125 0.375 "/>
<path style=" stroke:none;fill-rule:nonzero;fill:rgb(80%,81.960784%,85.098039%);fill-opacity:1;" d="M 10.3125 10.875 L 16.3125 10.875 L 16.3125 12 L 10.3125 12 Z M 10.3125 10.875 "/>
<path style=" stroke:none;fill-rule:nonzero;fill:rgb(90.196078%,91.372549%,92.941176%);fill-opacity:1;" d="M 15.261719 4.5 L 16.3125 4.5 C 17.347656 4.5 18.1875 5.339844 18.1875 6.375 C 18.1875 7.410156 17.347656 8.25 16.3125 8.25 L 16.3125 10.875 L 10.3125 10.875 L 10.3125 8.25 C 9.277344 8.25 8.4375 7.410156 8.4375 6.375 C 8.4375 5.339844 9.277344 4.5 10.3125 4.5 L 11.367188 4.5 C 11.753906 3.828125 12.480469 3.375 13.3125 3.375 C 14.144531 3.375 14.871094 3.828125 15.261719 4.5 Z M 15.261719 4.5 "/>
<path style=" stroke:none;fill-rule:nonzero;fill:rgb(0%,0%,0%);fill-opacity:1;" d="M 5.0625 24 C 3.820312 24 2.8125 22.992188 2.8125 21.75 C 2.8125 20.507812 3.820312 19.5 5.0625 19.5 C 5.269531 19.5 5.4375 19.667969 5.4375 19.875 C 5.4375 20.082031 5.269531 20.25 5.0625 20.25 C 4.234375 20.25 3.5625 20.921875 3.5625 21.75 C 3.5625 22.578125 4.234375 23.25 5.0625 23.25 C 5.269531 23.25 5.4375 23.417969 5.4375 23.625 C 5.4375 23.832031 5.269531 24 5.0625 24 Z M 5.0625 24 "/>
<path style=" stroke:none;fill-rule:nonzero;fill:rgb(0%,0%,0%);fill-opacity:1;" d="M 20.8125 20.25 L 5.0625 20.25 C 4.855469 20.25 4.6875 20.082031 4.6875 19.875 C 4.6875 19.667969 4.855469 19.5 5.0625 19.5 L 20.8125 19.5 C 21.019531 19.5 21.1875 19.667969 21.1875 19.875 C 21.1875 20.082031 21.019531 20.25 20.8125 20.25 Z M 20.8125 20.25 "/>
<path style=" stroke:none;fill-rule:nonzero;fill:rgb(0%,0%,0%);fill-opacity:1;" d="M 20.8125 24 L 5.0625 24 C 4.855469 24 4.6875 23.832031 4.6875 23.625 C 4.6875 23.417969 4.855469 23.25 5.0625 23.25 L 20.8125 23.25 C 21.019531 23.25 21.1875 23.417969 21.1875 23.625 C 21.1875 23.832031 21.019531 24 20.8125 24 Z M 20.8125 24 "/>
<path style=" stroke:none;fill-rule:nonzero;fill:rgb(0%,0%,0%);fill-opacity:1;" d="M 3.1875 2.625 C 2.980469 2.625 2.8125 2.457031 2.8125 2.25 C 2.8125 1.007812 3.820312 0 5.0625 0 C 5.269531 0 5.4375 0.167969 5.4375 0.375 C 5.4375 0.582031 5.269531 0.75 5.0625 0.75 C 4.234375 0.75 3.5625 1.421875 3.5625 2.25 C 3.5625 2.457031 3.394531 2.625 3.1875 2.625 Z M 3.1875 2.625 "/>
<path style=" stroke:none;fill-rule:nonzero;fill:rgb(0%,0%,0%);fill-opacity:1;" d="M 3.1875 22.125 C 2.980469 22.125 2.8125 21.957031 2.8125 21.75 L 2.8125 2.25 C 2.8125 2.042969 2.980469 1.875 3.1875 1.875 C 3.394531 1.875 3.5625 2.042969 3.5625 2.25 L 3.5625 21.75 C 3.5625 21.957031 3.394531 22.125 3.1875 22.125 Z M 3.1875 22.125 "/>
<path style=" stroke:none;fill-rule:nonzero;fill:rgb(0%,0%,0%);fill-opacity:1;" d="M 20.8125 0.75 L 5.0625 0.75 C 4.855469 0.75 4.6875 0.582031 4.6875 0.375 C 4.6875 0.167969 4.855469 0 5.0625 0 L 20.8125 0 C 21.019531 0 21.1875 0.167969 21.1875 0.375 C 21.1875 0.582031 21.019531 0.75 20.8125 0.75 Z M 20.8125 0.75 "/>
<path style=" stroke:none;fill-rule:nonzero;fill:rgb(0%,0%,0%);fill-opacity:1;" d="M 20.8125 20.25 C 20.605469 20.25 20.4375 20.082031 20.4375 19.875 L 20.4375 0.375 C 20.4375 0.167969 20.605469 0 20.8125 0 C 21.019531 0 21.1875 0.167969 21.1875 0.375 L 21.1875 19.875 C 21.1875 20.082031 21.019531 20.25 20.8125 20.25 Z M 20.8125 20.25 "/>
<path style=" stroke:none;fill-rule:nonzero;fill:rgb(0%,0%,0%);fill-opacity:1;" d="M 20.8125 24 C 20.605469 24 20.4375 23.832031 20.4375 23.625 L 20.4375 19.875 C 20.4375 19.667969 20.605469 19.5 20.8125 19.5 C 21.019531 19.5 21.1875 19.667969 21.1875 19.875 L 21.1875 23.625 C 21.1875 23.832031 21.019531 24 20.8125 24 Z M 20.8125 24 "/>
<path style=" stroke:none;fill-rule:nonzero;fill:rgb(0%,0%,0%);fill-opacity:1;" d="M 5.8125 20.25 C 5.605469 20.25 5.4375 20.082031 5.4375 19.875 L 5.4375 0.375 C 5.4375 0.167969 5.605469 0 5.8125 0 C 6.019531 0 6.1875 0.167969 6.1875 0.375 L 6.1875 19.875 C 6.1875 20.082031 6.019531 20.25 5.8125 20.25 Z M 5.8125 20.25 "/>
<path style=" stroke:none;fill-rule:nonzero;fill:rgb(0%,0%,0%);fill-opacity:1;" d="M 19.3125 22.125 L 5.0625 22.125 C 4.855469 22.125 4.6875 21.957031 4.6875 21.75 C 4.6875 21.542969 4.855469 21.375 5.0625 21.375 L 19.3125 21.375 C 19.519531 21.375 19.6875 21.542969 19.6875 21.75 C 19.6875 21.957031 19.519531 22.125 19.3125 22.125 Z M 19.3125 22.125 "/>
<path style=" stroke:none;fill-rule:nonzero;fill:rgb(0%,0%,0%);fill-opacity:1;" d="M 19.3125 24 C 19.105469 24 18.9375 23.832031 18.9375 23.625 L 18.9375 19.875 C 18.9375 19.667969 19.105469 19.5 19.3125 19.5 C 19.519531 19.5 19.6875 19.667969 19.6875 19.875 L 19.6875 23.625 C 19.6875 23.832031 19.519531 24 19.3125 24 Z M 19.3125 24 "/>
<path style=" stroke:none;fill-rule:nonzero;fill:rgb(0%,0%,0%);fill-opacity:1;" d="M 10.3125 8.625 C 9.074219 8.625 8.0625 7.617188 8.0625 6.375 C 8.0625 5.132812 9.074219 4.125 10.3125 4.125 C 10.519531 4.125 10.6875 4.292969 10.6875 4.5 C 10.6875 4.707031 10.519531 4.875 10.3125 4.875 C 9.488281 4.875 8.8125 5.546875 8.8125 6.375 C 8.8125 7.203125 9.488281 7.875 10.3125 7.875 C 10.519531 7.875 10.6875 8.042969 10.6875 8.25 C 10.6875 8.457031 10.519531 8.625 10.3125 8.625 Z M 10.3125 8.625 "/>
<path style=" stroke:none;fill-rule:nonzero;fill:rgb(0%,0%,0%);fill-opacity:1;" d="M 15.5625 6 C 15.355469 6 15.1875 5.832031 15.1875 5.625 C 15.1875 4.589844 14.347656 3.75 13.3125 3.75 C 12.28125 3.75 11.4375 4.589844 11.4375 5.625 C 11.4375 5.832031 11.269531 6 11.0625 6 C 10.855469 6 10.6875 5.832031 10.6875 5.625 C 10.6875 4.175781 11.867188 3 13.3125 3 C 14.761719 3 15.9375 4.175781 15.9375 5.625 C 15.9375 5.832031 15.769531 6 15.5625 6 Z M 15.5625 6 "/>
<path style=" stroke:none;fill-rule:nonzero;fill:rgb(0%,0%,0%);fill-opacity:1;" d="M 16.3125 8.625 C 16.105469 8.625 15.9375 8.457031 15.9375 8.25 C 15.9375 8.042969 16.105469 7.875 16.3125 7.875 C 17.140625 7.875 17.8125 7.203125 17.8125 6.375 C 17.8125 5.546875 17.140625 4.875 16.3125 4.875 C 16.105469 4.875 15.9375 4.707031 15.9375 4.5 C 15.9375 4.292969 16.105469 4.125 16.3125 4.125 C 17.554688 4.125 18.5625 5.132812 18.5625 6.375 C 18.5625 7.617188 17.554688 8.625 16.3125 8.625 Z M 16.3125 8.625 "/>
<path style=" stroke:none;fill-rule:nonzero;fill:rgb(0%,0%,0%);fill-opacity:1;" d="M 11.363281 4.875 L 10.3125 4.875 C 10.105469 4.875 9.9375 4.707031 9.9375 4.5 C 9.9375 4.292969 10.105469 4.125 10.3125 4.125 L 11.363281 4.125 C 11.574219 4.125 11.738281 4.292969 11.738281 4.5 C 11.738281 4.707031 11.570312 4.875 11.363281 4.875 Z M 11.363281 4.875 "/>
<path style=" stroke:none;fill-rule:nonzero;fill:rgb(0%,0%,0%);fill-opacity:1;" d="M 16.3125 4.875 L 15.261719 4.875 C 15.054688 4.875 14.886719 4.707031 14.886719 4.5 C 14.886719 4.292969 15.054688 4.125 15.261719 4.125 L 16.3125 4.125 C 16.519531 4.125 16.6875 4.292969 16.6875 4.5 C 16.6875 4.707031 16.519531 4.875 16.3125 4.875 Z M 16.3125 4.875 "/>
<path style=" stroke:none;fill-rule:nonzero;fill:rgb(0%,0%,0%);fill-opacity:1;" d="M 10.3125 12.375 C 10.105469 12.375 9.9375 12.207031 9.9375 12 L 9.9375 8.25 C 9.9375 8.042969 10.105469 7.875 10.3125 7.875 C 10.519531 7.875 10.6875 8.042969 10.6875 8.25 L 10.6875 12 C 10.6875 12.207031 10.519531 12.375 10.3125 12.375 Z M 10.3125 12.375 "/>
<path style=" stroke:none;fill-rule:nonzero;fill:rgb(0%,0%,0%);fill-opacity:1;" d="M 16.3125 12.375 L 10.3125 12.375 C 10.105469 12.375 9.9375 12.207031 9.9375 12 C 9.9375 11.792969 10.105469 11.625 10.3125 11.625 L 16.3125 11.625 C 16.519531 11.625 16.6875 11.792969 16.6875 12 C 16.6875 12.207031 16.519531 12.375 16.3125 12.375 Z M 16.3125 12.375 "/>
<path style=" stroke:none;fill-rule:nonzero;fill:rgb(0%,0%,0%);fill-opacity:1;" d="M 16.3125 11.25 L 10.3125 11.25 C 10.105469 11.25 9.9375 11.082031 9.9375 10.875 C 9.9375 10.667969 10.105469 10.5 10.3125 10.5 L 16.3125 10.5 C 16.519531 10.5 16.6875 10.667969 16.6875 10.875 C 16.6875 11.082031 16.519531 11.25 16.3125 11.25 Z M 16.3125 11.25 "/>
<path style=" stroke:none;fill-rule:nonzero;fill:rgb(0%,0%,0%);fill-opacity:1;" d="M 16.3125 12.375 C 16.105469 12.375 15.9375 12.207031 15.9375 12 L 15.9375 8.25 C 15.9375 8.042969 16.105469 7.875 16.3125 7.875 C 16.519531 7.875 16.6875 8.042969 16.6875 8.25 L 16.6875 12 C 16.6875 12.207031 16.519531 12.375 16.3125 12.375 Z M 16.3125 12.375 "/>
<path style=" stroke:none;fill-rule:nonzero;fill:rgb(0%,0%,0%);fill-opacity:1;" d="M 17.4375 14.625 L 9.1875 14.625 C 8.980469 14.625 8.8125 14.457031 8.8125 14.25 C 8.8125 14.042969 8.980469 13.875 9.1875 13.875 L 17.4375 13.875 C 17.644531 13.875 17.8125 14.042969 17.8125 14.25 C 17.8125 14.457031 17.644531 14.625 17.4375 14.625 Z M 17.4375 14.625 "/>
<path style=" stroke:none;fill-rule:nonzero;fill:rgb(0%,0%,0%);fill-opacity:1;" d="M 17.4375 15.75 L 9.1875 15.75 C 8.980469 15.75 8.8125 15.582031 8.8125 15.375 C 8.8125 15.167969 8.980469 15 9.1875 15 L 17.4375 15 C 17.644531 15 17.8125 15.167969 17.8125 15.375 C 17.8125 15.582031 17.644531 15.75 17.4375 15.75 Z M 17.4375 15.75 "/>
<path style=" stroke:none;fill-rule:nonzero;fill:rgb(0%,0%,0%);fill-opacity:1;" d="M 15.5625 16.882812 L 11.0625 16.882812 C 10.855469 16.882812 10.6875 16.714844 10.6875 16.507812 C 10.6875 16.300781 10.855469 16.132812 11.0625 16.132812 L 15.5625 16.132812 C 15.769531 16.132812 15.9375 16.300781 15.9375 16.507812 C 15.9375 16.714844 15.769531 16.882812 15.5625 16.882812 Z M 15.5625 16.882812 "/>

</svg>
