<?xml version="1.0" encoding="UTF-8"?>
<svg width="804px" height="438px" viewBox="0 0 804 438" version="1.1" xmlns="http://www.w3.org/2000/svg" xmlns:xlink="http://www.w3.org/1999/xlink">
    <title>recipes_placeholder</title>
    <g id="recipes_placeholder" stroke="none" stroke-width="1" fill="none" fill-rule="evenodd">
        <rect fill="#F5F5F5" x="0" y="0" width="804" height="438"></rect>
        <g id="recipes" transform="translate(298.500000, 83.500000)" fill-rule="nonzero">
            <g id="Group" transform="translate(4.224000, 4.224000)">
                <path d="M29.5680006,0 L29.5680006,219.648005 L21.1200005,219.648005 C9.46176021,219.648005 -1.24344979e-14,229.109765 -1.24344979e-14,240.768005 L-1.24344979e-14,21.1200005 C-1.24344979e-14,9.46176021 9.46176021,0 21.1200005,0 L29.5680006,0 Z" id="Path"></path>
                <polygon id="Path" points="198.528004 219.648005 198.528004 261.888006 181.632004 261.888006 181.632004 240.768005 181.632004 219.648005"></polygon>
                <path d="M181.632004,240.768005 L181.632004,261.888006 L21.1200005,261.888006 C9.46176021,261.888006 -1.42108547e-14,252.426245 -1.42108547e-14,240.768005 C-1.42108547e-14,229.109765 9.46176021,219.648005 21.1200005,219.648005 L29.5680006,219.648005 L181.632004,219.648005 L181.632004,240.768005 Z" id="Path"></path>
                <polygon id="Path" points="29.5680006 0 29.5680006 219.648005 181.632004 219.648005 198.528004 219.648005 198.528004 0"></polygon>
                <polygon id="Path" points="80.2560017 118.272003 147.840003 118.272003 147.840003 130.944003 80.2560017 130.944003"></polygon>
                <path d="M136.012803,46.464001 L147.840003,46.464001 C159.498243,46.464001 168.960004,55.9257612 168.960004,67.5840015 C168.960004,79.2422417 159.498243,88.7040019 147.840003,88.7040019 L147.840003,118.272003 L80.2560017,118.272003 L80.2560017,88.7040019 C68.5977615,88.7040019 59.1360013,79.2422417 59.1360013,67.5840015 C59.1360013,55.9257612 68.5977615,46.464001 80.2560017,46.464001 L92.125442,46.464001 C96.4761621,38.9030408 104.674946,33.7920007 114.048002,33.7920007 C123.421059,33.7920007 131.619843,38.9030408 136.012803,46.464001 Z" id="Path"></path>
            </g>
            <path d="M25.3440005,270.336006 C11.3667842,270.336006 0,258.969222 0,244.992005 C0,231.014789 11.3667842,219.648005 25.3440005,219.648005 C27.6798726,219.648005 29.5680006,221.536133 29.5680006,223.872005 C29.5680006,226.207877 27.6798726,228.096005 25.3440005,228.096005 C16.0258563,228.096005 8.44800018,235.673861 8.44800018,244.992005 C8.44800018,254.31015 16.0258563,261.888006 25.3440005,261.888006 C27.6798726,261.888006 29.5680006,263.776134 29.5680006,266.112006 C29.5680006,268.447878 27.6798726,270.336006 25.3440005,270.336006 Z" id="Path" fill="#202020"></path>
            <path d="M202.752004,228.096005 L25.3440005,228.096005 C23.0081285,228.096005 21.1200005,226.207877 21.1200005,223.872005 C21.1200005,221.536133 23.0081285,219.648005 25.3440005,219.648005 L202.752004,219.648005 C205.087876,219.648005 206.976004,221.536133 206.976004,223.872005 C206.976004,226.207877 205.087876,228.096005 202.752004,228.096005 Z" id="Path" fill="#202020"></path>
            <path d="M202.752004,270.336006 L25.3440005,270.336006 C23.0081285,270.336006 21.1200005,268.447878 21.1200005,266.112006 C21.1200005,263.776134 23.0081285,261.888006 25.3440005,261.888006 L202.752004,261.888006 C205.087876,261.888006 206.976004,263.776134 206.976004,266.112006 C206.976004,268.447878 205.087876,270.336006 202.752004,270.336006 Z" id="Path" fill="#202020"></path>
            <path d="M4.22400009,29.5680006 C1.88812804,29.5680006 0,27.6798726 0,25.3440005 C0,11.3667842 11.3667842,0 25.3440005,0 C27.6798726,0 29.5680006,1.88812804 29.5680006,4.22400009 C29.5680006,6.55987214 27.6798726,8.44800018 25.3440005,8.44800018 C16.0258563,8.44800018 8.44800018,16.0258563 8.44800018,25.3440005 C8.44800018,27.6798726 6.55987214,29.5680006 4.22400009,29.5680006 Z" id="Path" fill="#202020"></path>
            <path d="M4.22400009,249.216005 C1.88812804,249.216005 0,247.327877 0,244.992005 L0,25.3440005 C0,23.0081285 1.88812804,21.1200005 4.22400009,21.1200005 C6.55987214,21.1200005 8.44800018,23.0081285 8.44800018,25.3440005 L8.44800018,244.992005 C8.44800018,247.327877 6.55987214,249.216005 4.22400009,249.216005 Z" id="Path" fill="#202020"></path>
            <path d="M202.752004,8.44800018 L25.3440005,8.44800018 C23.0081285,8.44800018 21.1200005,6.55987214 21.1200005,4.22400009 C21.1200005,1.88812804 23.0081285,0 25.3440005,0 L202.752004,0 C205.087876,0 206.976004,1.88812804 206.976004,4.22400009 C206.976004,6.55987214 205.087876,8.44800018 202.752004,8.44800018 Z" id="Path" fill="#202020"></path>
            <path d="M202.752004,228.096005 C200.416132,228.096005 198.528004,226.207877 198.528004,223.872005 L198.528004,4.22400009 C198.528004,1.88812804 200.416132,0 202.752004,0 C205.087876,0 206.976004,1.88812804 206.976004,4.22400009 L206.976004,223.872005 C206.976004,226.207877 205.087876,228.096005 202.752004,228.096005 Z" id="Path" fill="#202020"></path>
            <path d="M202.752004,270.336006 C200.416132,270.336006 198.528004,268.447878 198.528004,266.112006 L198.528004,223.872005 C198.528004,221.536133 200.416132,219.648005 202.752004,219.648005 C205.087876,219.648005 206.976004,221.536133 206.976004,223.872005 L206.976004,266.112006 C206.976004,268.447878 205.087876,270.336006 202.752004,270.336006 Z" id="Path" fill="#202020"></path>
            <path d="M33.7920007,228.096005 C31.4561287,228.096005 29.5680006,226.207877 29.5680006,223.872005 L29.5680006,4.22400009 C29.5680006,1.88812804 31.4561287,0 33.7920007,0 C36.1278728,0 38.0160008,1.88812804 38.0160008,4.22400009 L38.0160008,223.872005 C38.0160008,226.207877 36.1278728,228.096005 33.7920007,228.096005 Z" id="Path" fill="#202020"></path>
            <path d="M185.856004,249.224453 L25.3440005,249.224453 C23.0081285,249.224453 21.1200005,247.336325 21.1200005,245.000453 C21.1200005,242.664581 23.0081285,240.776453 25.3440005,240.776453 L185.856004,240.776453 C188.191876,240.776453 190.080004,242.664581 190.080004,245.000453 C190.080004,247.336325 188.191876,249.224453 185.856004,249.224453 Z" id="Path" fill="#202020"></path>
            <path d="M185.856004,270.336006 C183.520132,270.336006 181.632004,268.447878 181.632004,266.112006 L181.632004,223.872005 C181.632004,221.536133 183.520132,219.648005 185.856004,219.648005 C188.191876,219.648005 190.080004,221.536133 190.080004,223.872005 L190.080004,266.112006 C190.080004,268.447878 188.191876,270.336006 185.856004,270.336006 Z" id="Path" fill="#202020"></path>
            <path d="M84.4926738,97.1477781 C70.5154575,97.1477781 59.1486733,85.7809939 59.1486733,71.8037776 C59.1486733,57.8265613 70.5154575,46.459777 84.4926738,46.459777 C86.8285459,46.459777 88.7166739,48.347905 88.7166739,50.6837771 C88.7166739,53.0196491 86.8285459,54.9077772 84.4926738,54.9077772 C75.1745296,54.9077772 67.5966735,62.4856334 67.5966735,71.8037776 C67.5966735,81.1219218 75.1745296,88.6997779 84.4926738,88.6997779 C86.8285459,88.6997779 88.7166739,90.587906 88.7166739,92.923778 C88.7166739,95.2596501 86.8285459,97.1477781 84.4926738,97.1477781 Z" id="Path" fill="#202020"></path>
            <path d="M143.624451,67.5797775 C141.288579,67.5797775 139.400451,65.6916494 139.400451,63.3557774 C139.400451,51.7102091 129.926019,42.2357769 118.280451,42.2357769 C106.634882,42.2357769 97.1604501,51.7102091 97.1604501,63.3557774 C97.1604501,65.6916494 95.2723221,67.5797775 92.93645,67.5797775 C90.600578,67.5797775 88.7124499,65.6916494 88.7124499,63.3557774 C88.7124499,47.055361 101.980034,33.7877767 118.280451,33.7877767 C134.580867,33.7877767 147.848451,47.055361 147.848451,63.3557774 C147.848451,65.6916494 145.960323,67.5797775 143.624451,67.5797775 Z" id="Path" fill="#202020"></path>
            <path d="M152.068227,97.1477781 C149.732355,97.1477781 147.844227,95.2596501 147.844227,92.923778 C147.844227,90.587906 149.732355,88.6997779 152.068227,88.6997779 C161.386371,88.6997779 168.964228,81.1219218 168.964228,71.8037776 C168.964228,62.4856334 161.386371,54.9077772 152.068227,54.9077772 C149.732355,54.9077772 147.844227,53.0196491 147.844227,50.6837771 C147.844227,48.347905 149.732355,46.459777 152.068227,46.459777 C166.045444,46.459777 177.412228,57.8265613 177.412228,71.8037776 C177.412228,85.7809939 166.045444,97.1477781 152.068227,97.1477781 Z" id="Path" fill="#202020"></path>
            <path d="M96.3367701,54.9077772 L84.4884498,54.9077772 C82.1525778,54.9077772 80.2644497,53.0196491 80.2644497,50.6837771 C80.2644497,48.347905 82.1525778,46.459777 84.4884498,46.459777 L96.3367701,46.459777 C98.6726421,46.459777 100.56077,48.347905 100.56077,50.6837771 C100.56077,53.0196491 98.6684181,54.9077772 96.3367701,54.9077772 Z" id="Path" fill="#202020"></path>
            <path d="M152.068227,54.9077772 L140.224131,54.9077772 C137.888259,54.9077772 136.000131,53.0196491 136.000131,50.6837771 C136.000131,48.347905 137.888259,46.459777 140.224131,46.459777 L152.068227,46.459777 C154.404099,46.459777 156.292227,48.347905 156.292227,50.6837771 C156.292227,53.0196491 154.404099,54.9077772 152.068227,54.9077772 Z" id="Path" fill="#202020"></path>
            <path d="M84.4884498,139.383555 C82.1525778,139.383555 80.2644497,137.495427 80.2644497,135.159555 L80.2644497,92.91533 C80.2644497,90.579458 82.1525778,88.6913299 84.4884498,88.6913299 C86.8243219,88.6913299 88.7124499,90.579458 88.7124499,92.91533 L88.7124499,135.159555 C88.7124499,137.495427 86.8243219,139.383555 84.4884498,139.383555 Z" id="Path" fill="#202020"></path>
            <path d="M152.076675,139.383555 L84.4884498,139.383555 C82.1525778,139.383555 80.2644497,137.495427 80.2644497,135.159555 C80.2644497,132.823683 82.1525778,130.935555 84.4884498,130.935555 L152.076675,130.935555 C154.412547,130.935555 156.300675,132.823683 156.300675,135.159555 C156.300675,137.495427 154.412547,139.383555 152.076675,139.383555 Z" id="Path" fill="#202020"></path>
            <path d="M152.076675,126.720003 L84.4884498,126.720003 C82.1525778,126.720003 80.2644497,124.831875 80.2644497,122.496003 C80.2644497,120.160131 82.1525778,118.272003 84.4884498,118.272003 L152.076675,118.272003 C154.412547,118.272003 156.300675,120.160131 156.300675,122.496003 C156.300675,124.831875 154.412547,126.720003 152.076675,126.720003 Z" id="Path" fill="#202020"></path>
            <path d="M152.076675,139.383555 C149.740803,139.383555 147.852675,137.495427 147.852675,135.159555 L147.852675,92.91533 C147.852675,90.579458 149.740803,88.6913299 152.076675,88.6913299 C154.412547,88.6913299 156.300675,90.579458 156.300675,92.91533 L156.300675,135.159555 C156.300675,137.495427 154.412547,139.383555 152.076675,139.383555 Z" id="Path" fill="#202020"></path>
            <path d="M164.73178,164.73178 L71.8291216,164.73178 C69.4932495,164.73178 67.6051215,162.843652 67.6051215,160.507779 C67.6051215,158.171907 69.4932495,156.283779 71.8291216,156.283779 L164.73178,156.283779 C167.067652,156.283779 168.95578,158.171907 168.95578,160.507779 C168.95578,162.843652 167.067652,164.73178 164.73178,164.73178 Z" id="Path" fill="#202020"></path>
            <path d="M164.73178,177.40378 L71.8291216,177.40378 C69.4932495,177.40378 67.6051215,175.515652 67.6051215,173.17978 C67.6051215,170.843908 69.4932495,168.95578 71.8291216,168.95578 L164.73178,168.95578 C167.067652,168.95578 168.95578,170.843908 168.95578,173.17978 C168.95578,175.515652 167.067652,177.40378 164.73178,177.40378 Z" id="Path" fill="#202020"></path>
            <path d="M143.616003,190.185604 L92.944898,190.185604 C90.609026,190.185604 88.7208979,188.297476 88.7208979,185.961604 C88.7208979,183.625732 90.609026,181.737604 92.944898,181.737604 L143.616003,181.737604 C145.951875,181.737604 147.840003,183.625732 147.840003,185.961604 C147.840003,188.297476 145.951875,190.185604 143.616003,190.185604 Z" id="Path" fill="#202020"></path>
        </g>
    </g>
</svg>